<svg width="60" height="60" viewBox="0 0 60 60" fill="none" xmlns="http://www.w3.org/2000/svg">
<path d="M0 30C0 13.4315 13.4315 0 30 0V0C46.5685 0 60 13.4315 60 30V30C60 46.5685 46.5685 60 30 60V60C13.4315 60 0 46.5685 0 30V30Z" fill="#FCFCFD"/>
<path opacity="0.2" d="M30 18C27.6266 18 25.3066 18.7038 23.3332 20.0224C21.3598 21.3409 19.8217 23.2151 18.9135 25.4078C18.0052 27.6005 17.7676 30.0133 18.2306 32.3411C18.6936 34.6689 19.8365 36.8071 21.5147 38.4853C23.193 40.1635 25.3312 41.3064 27.6589 41.7694C29.9867 42.2324 32.3995 41.9948 34.5922 41.0866C36.7849 40.1783 38.6591 38.6402 39.9776 36.6668C41.2962 34.6935 42 32.3734 42 30C42 28.4241 41.6896 26.8637 41.0866 25.4078C40.4835 23.9519 39.5996 22.629 38.4853 21.5147C37.371 20.4004 36.0481 19.5165 34.5922 18.9134C33.1363 18.3104 31.5759 18 30 18ZM28 34V26L34 30L28 34Z" fill="#FB6514"/>
<path d="M30 42C36.6274 42 42 36.6274 42 30C42 23.3726 36.6274 18 30 18C23.3726 18 18 23.3726 18 30C18 36.6274 23.3726 42 30 42Z" stroke="#FB6514" stroke-width="2" stroke-miterlimit="10"/>
<path d="M34 30L28 26V34L34 30Z" stroke="#FB6514" stroke-width="2" stroke-linecap="round" stroke-linejoin="round"/>
</svg>
