<svg width="46" height="46" viewBox="0 0 46 46" fill="none" xmlns="http://www.w3.org/2000/svg">
<path d="M0 23C0 10.2975 10.2975 0 23 0C35.7025 0 46 10.2975 46 23C46 35.7025 35.7025 46 23 46C10.2975 46 0 35.7025 0 23Z" fill="#363B47" fill-opacity="0.4"/>
<path d="M25.3575 16.9887H27.0008V14.1267C26.7172 14.0878 25.7423 14 24.6068 14C22.2375 14 20.6145 15.4902 20.6145 18.2292V20.75H18V23.9495H20.6145V32H23.82V23.9503H26.3288L26.727 20.7508H23.8193V18.5465C23.82 17.6217 24.069 16.9887 25.3575 16.9887Z" fill="#FCFCFD"/>
</svg>
