<svg width="46" height="46" viewBox="0 0 46 46" fill="none" xmlns="http://www.w3.org/2000/svg">
<path d="M0 23C0 10.2984 10.2967 0 22.9982 0C35.6998 0 45.9965 10.2984 45.9965 23C45.9965 35.7015 35.6998 45.9999 22.9982 45.9999C10.2967 45.9999 0 35.7015 0 23Z" fill="#363B47" fill-opacity="0.4"/>
<path d="M31.9507 19.292C31.9086 18.3356 31.7539 17.6781 31.5324 17.1084C31.3038 16.5036 30.9522 15.9621 30.4915 15.512C30.0414 15.0549 29.4963 14.6997 28.8986 14.4747C28.3255 14.2531 27.6714 14.0985 26.715 14.0563C25.7515 14.0106 25.4456 14 23.0017 14C20.5579 14 20.252 14.0106 19.292 14.0527C18.3356 14.0949 17.6781 14.2497 17.1085 14.4711C16.5036 14.6997 15.9621 15.0513 15.512 15.512C15.0549 15.9621 14.6998 16.5072 14.4747 17.1049C14.2531 17.6781 14.0985 18.3321 14.0563 19.2885C14.0106 20.252 14 20.5579 14 23.0018C14 25.4456 14.0106 25.7515 14.0527 26.7115C14.0949 27.6679 14.2497 28.3254 14.4713 28.8952C14.6998 29.4999 15.0549 30.0414 15.512 30.4915C15.9621 30.9486 16.5072 31.3038 17.1049 31.5288C17.6781 31.7504 18.3321 31.905 19.2886 31.9472C20.2484 31.9895 20.5545 31.9999 22.9983 31.9999C25.4421 31.9999 25.748 31.9895 26.708 31.9472C27.6644 31.905 28.3219 31.7504 28.8916 31.5288C30.1012 31.0611 31.0577 30.1047 31.5254 28.8952C31.7468 28.322 31.9016 27.6679 31.9437 26.7115C31.9859 25.7515 31.9965 25.4456 31.9965 23.0018C31.9965 20.5579 31.9929 20.252 31.9507 19.292ZM30.3298 26.6411C30.2911 27.5202 30.1434 27.9949 30.0203 28.3114C29.7179 29.0956 29.0955 29.7179 28.3114 30.0204C27.9949 30.1434 27.5168 30.2911 26.6411 30.3297C25.6917 30.372 25.407 30.3824 23.0053 30.3824C20.6037 30.3824 20.3153 30.372 19.3694 30.3297C18.4903 30.2911 18.0156 30.1434 17.6991 30.0204C17.3089 29.8761 16.9537 29.6476 16.6654 29.3487C16.3665 29.0568 16.1379 28.7052 15.9937 28.315C15.8706 27.9985 15.723 27.5202 15.6844 26.6447C15.6421 25.6953 15.6316 25.4104 15.6316 23.0088C15.6316 20.6071 15.6421 20.3188 15.6844 19.373C15.723 18.4939 15.8706 18.0192 15.9937 17.7027C16.1379 17.3123 16.3665 16.9573 16.669 16.6688C16.9607 16.3699 17.3123 16.1414 17.7027 15.9973C18.0192 15.8742 18.4974 15.7266 19.3729 15.6878C20.3223 15.6457 20.6072 15.6351 23.0087 15.6351C25.414 15.6351 25.6987 15.6457 26.6447 15.6878C27.5238 15.7266 27.9985 15.8742 28.3149 15.9973C28.7052 16.1414 29.0604 16.3699 29.3487 16.6688C29.6476 16.9607 29.8761 17.3123 30.0203 17.7027C30.1434 18.0192 30.2911 18.4973 30.3298 19.373C30.372 20.3224 30.3826 20.6071 30.3826 23.0088C30.3826 25.4104 30.372 25.6917 30.3298 26.6411Z" fill="#FCFCFD"/>
<path d="M23.0019 18.3774C20.4491 18.3774 18.3779 20.4485 18.3779 23.0014C18.3779 25.5543 20.4491 27.6253 23.0019 27.6253C25.5548 27.6253 27.6258 25.5543 27.6258 23.0014C27.6258 20.4485 25.5548 18.3774 23.0019 18.3774ZM23.0019 26.0008C21.3458 26.0008 20.0024 24.6576 20.0024 23.0014C20.0024 21.3452 21.3458 20.002 23.0019 20.002C24.6581 20.002 26.0013 21.3452 26.0013 23.0014C26.0013 24.6576 24.6581 26.0008 23.0019 26.0008Z" fill="#FCFCFD"/>
<path d="M28.8876 18.1952C28.8876 18.7913 28.4043 19.2747 27.808 19.2747C27.2119 19.2747 26.7285 18.7913 26.7285 18.1952C26.7285 17.5989 27.2119 17.1157 27.808 17.1157C28.4043 17.1157 28.8876 17.5989 28.8876 18.1952Z" fill="#FCFCFD"/>
</svg>
