<svg width="139" height="29" viewBox="0 0 139 29" fill="none" xmlns="http://www.w3.org/2000/svg">
<path d="M5.03999 7.164V13.464H13.5V17.46H5.03999V24.12H14.58V28.224H-8.58307e-06V3.06H14.58V7.164H5.03999ZM17.8641 18.18C17.8641 16.164 18.2601 14.376 19.0521 12.816C19.8681 11.256 20.9721 10.056 22.3641 9.216C23.7561 8.376 25.3041 7.956 27.0081 7.956C28.3041 7.956 29.5401 8.244 30.7161 8.82C31.8921 9.372 32.8281 10.116 33.5241 11.052V1.584H38.6361V28.224H33.5241V25.272C32.9001 26.256 32.0241 27.048 30.8961 27.648C29.7681 28.248 28.4601 28.548 26.9721 28.548C25.2921 28.548 23.7561 28.116 22.3641 27.252C20.9721 26.388 19.8681 25.176 19.0521 23.616C18.2601 22.032 17.8641 20.22 17.8641 18.18ZM33.5601 18.252C33.5601 17.028 33.3201 15.984 32.8401 15.12C32.3601 14.232 31.7121 13.56 30.8961 13.104C30.0801 12.624 29.2041 12.384 28.2681 12.384C27.3321 12.384 26.4681 12.612 25.6761 13.068C24.8841 13.524 24.2361 14.196 23.7321 15.084C23.2521 15.948 23.0121 16.98 23.0121 18.18C23.0121 19.38 23.2521 20.436 23.7321 21.348C24.2361 22.236 24.8841 22.92 25.6761 23.4C26.4921 23.88 27.3561 24.12 28.2681 24.12C29.2041 24.12 30.0801 23.892 30.8961 23.436C31.7121 22.956 32.3601 22.284 32.8401 21.42C33.3201 20.532 33.5601 19.476 33.5601 18.252ZM62.3866 8.28V28.224H57.3106V25.704C56.6626 26.568 55.8106 27.252 54.7546 27.756C53.7226 28.236 52.5946 28.476 51.3706 28.476C49.8106 28.476 48.4306 28.152 47.2306 27.504C46.0306 26.832 45.0826 25.86 44.3866 24.588C43.7146 23.292 43.3786 21.756 43.3786 19.98V8.28H48.4186V19.26C48.4186 20.844 48.8146 22.068 49.6066 22.932C50.3986 23.772 51.4786 24.192 52.8466 24.192C54.2386 24.192 55.3306 23.772 56.1226 22.932C56.9146 22.068 57.3106 20.844 57.3106 19.26V8.28H62.3866ZM80.3194 28.224L74.7754 18.432H72.3994V28.224H67.3594V3.096H76.7914C78.7354 3.096 80.3914 3.444 81.7594 4.14C83.1274 4.812 84.1474 5.736 84.8194 6.912C85.5154 8.064 85.8634 9.36 85.8634 10.8C85.8634 12.456 85.3834 13.956 84.4234 15.3C83.4634 16.62 82.0354 17.532 80.1394 18.036L86.1514 28.224H80.3194ZM72.3994 14.652H76.6114C77.9794 14.652 78.9994 14.328 79.6714 13.68C80.3434 13.008 80.6794 12.084 80.6794 10.908C80.6794 9.756 80.3434 8.868 79.6714 8.244C78.9994 7.596 77.9794 7.272 76.6114 7.272H72.3994V14.652ZM92.9779 5.904C92.0899 5.904 91.3459 5.628 90.7459 5.076C90.1699 4.5 89.8819 3.792 89.8819 2.952C89.8819 2.112 90.1699 1.416 90.7459 0.863997C91.3459 0.287997 92.0899 -2.38419e-06 92.9779 -2.38419e-06C93.8659 -2.38419e-06 94.5979 0.287997 95.1739 0.863997C95.7739 1.416 96.0739 2.112 96.0739 2.952C96.0739 3.792 95.7739 4.5 95.1739 5.076C94.5979 5.628 93.8659 5.904 92.9779 5.904ZM95.4619 8.28V28.224H90.4219V8.28H95.4619ZM108.073 28.548C106.441 28.548 104.977 28.26 103.681 27.684C102.385 27.084 101.353 26.28 100.585 25.272C99.8414 24.264 99.4334 23.148 99.3614 21.924H104.437C104.533 22.692 104.905 23.328 105.553 23.832C106.225 24.336 107.053 24.588 108.037 24.588C108.997 24.588 109.741 24.396 110.269 24.012C110.821 23.628 111.097 23.136 111.097 22.536C111.097 21.888 110.761 21.408 110.089 21.096C109.441 20.76 108.397 20.4 106.957 20.016C105.469 19.656 104.245 19.284 103.285 18.9C102.349 18.516 101.533 17.928 100.837 17.136C100.165 16.344 99.8294 15.276 99.8294 13.932C99.8294 12.828 100.141 11.82 100.765 10.908C101.413 9.996 102.325 9.276 103.501 8.748C104.701 8.22 106.105 7.956 107.713 7.956C110.089 7.956 111.985 8.556 113.401 9.756C114.817 10.932 115.597 12.528 115.741 14.544H110.917C110.845 13.752 110.509 13.128 109.909 12.672C109.333 12.192 108.553 11.952 107.569 11.952C106.657 11.952 105.949 12.12 105.445 12.456C104.965 12.792 104.725 13.26 104.725 13.86C104.725 14.532 105.061 15.048 105.733 15.408C106.405 15.744 107.449 16.092 108.865 16.452C110.305 16.812 111.493 17.184 112.429 17.568C113.365 17.952 114.169 18.552 114.841 19.368C115.537 20.16 115.897 21.216 115.921 22.536C115.921 23.688 115.597 24.72 114.949 25.632C114.325 26.544 113.413 27.264 112.213 27.792C111.037 28.296 109.657 28.548 108.073 28.548ZM138.599 17.82C138.599 18.54 138.551 19.188 138.455 19.764H123.875C123.995 21.204 124.499 22.332 125.387 23.148C126.275 23.964 127.367 24.372 128.663 24.372C130.535 24.372 131.867 23.568 132.659 21.96H138.095C137.519 23.88 136.415 25.464 134.783 26.712C133.151 27.936 131.147 28.548 128.771 28.548C126.851 28.548 125.123 28.128 123.587 27.288C122.075 26.424 120.887 25.212 120.023 23.652C119.183 22.092 118.763 20.292 118.763 18.252C118.763 16.188 119.183 14.376 120.023 12.816C120.863 11.256 122.039 10.056 123.551 9.216C125.063 8.376 126.803 7.956 128.771 7.956C130.667 7.956 132.359 8.364 133.847 9.18C135.359 9.996 136.523 11.16 137.339 12.672C138.179 14.16 138.599 15.876 138.599 17.82ZM133.379 16.38C133.355 15.084 132.887 14.052 131.975 13.284C131.063 12.492 129.947 12.096 128.627 12.096C127.379 12.096 126.323 12.48 125.459 13.248C124.619 13.992 124.103 15.036 123.911 16.38H133.379Z" fill="#2E90FA"/>
</svg>
