<svg width="46" height="46" viewBox="0 0 46 46" fill="none" xmlns="http://www.w3.org/2000/svg">
<path d="M0 23C0 10.2975 10.2975 0 23 0C35.7025 0 46 10.2975 46 23C46 35.7025 35.7025 46 23 46C10.2975 46 0 35.7025 0 23Z" fill="#363B47" fill-opacity="0.4"/>
<g clip-path="url(#clip0_1_7258)">
<path d="M32 17.7314C31.3306 18.025 30.6174 18.2196 29.8737 18.3141C30.6388 17.8574 31.2226 17.1396 31.4971 16.2745C30.7839 16.6997 29.9964 17.0001 29.1571 17.1678C28.4799 16.4466 27.5146 16 26.4616 16C24.4186 16 22.7739 17.6583 22.7739 19.6911C22.7739 19.9836 22.7986 20.2649 22.8594 20.5326C19.7915 20.383 17.0769 18.9126 15.2533 16.6728C14.9349 17.2251 14.7481 17.8574 14.7481 18.538C14.7481 19.816 15.4062 20.9489 16.3872 21.6047C15.7944 21.5935 15.2127 21.4214 14.72 21.1502C14.72 21.1615 14.72 21.1761 14.72 21.1907C14.72 22.984 15.9991 24.4735 17.6765 24.8166C17.3761 24.8988 17.0487 24.9381 16.709 24.9381C16.4727 24.9381 16.2342 24.9246 16.0104 24.8751C16.4885 26.3365 17.8453 27.4109 19.4585 27.4457C18.203 28.4279 16.6089 29.0196 14.8831 29.0196C14.5805 29.0196 14.2902 29.0061 14 28.969C15.6346 30.0231 17.5719 30.625 19.661 30.625C26.4515 30.625 30.164 25 30.164 20.1242C30.164 19.9611 30.1584 19.8036 30.1505 19.6473C30.8829 19.1275 31.4982 18.4784 32 17.7314Z" fill="#FCFCFD"/>
</g>
<defs>
<clipPath id="clip0_1_7258">
<rect width="18" height="18" fill="white" transform="translate(14 14)"/>
</clipPath>
</defs>
</svg>
