<svg width="46" height="46" viewBox="0 0 46 46" fill="none" xmlns="http://www.w3.org/2000/svg">
<path d="M0 23C0 10.2975 10.2975 0 23 0C35.7025 0 46 10.2975 46 23C46 35.7025 35.7025 46 23 46C10.2975 46 0 35.7025 0 23Z" fill="#363B47" fill-opacity="0.4"/>
<path d="M23 17C23.036 17 28.6389 17.0015 30.043 17.3857C30.8137 17.5934 31.4213 18.2009 31.6289 18.9717C32.0145 20.3801 32 23.3164 32 23.3164C32 23.3377 31.9982 26.2421 31.6289 27.6455C31.4213 28.4164 30.814 29.0249 30.043 29.2324C28.6365 29.6027 23.0167 29.6025 23 29.6025C23 29.6025 17.3803 29.6033 15.957 29.2178C15.186 29.0101 14.5788 28.4018 14.3711 27.6309C14.0026 26.2453 14 23.3358 14 23.3018C14 23.3018 14.0004 20.3801 14.3711 18.9717C14.5787 18.201 15.2011 17.5786 15.957 17.3711C17.3656 17.0003 23 17 23 17ZM21.2061 26L25.8916 23.3018L21.2061 20.6035V26Z" fill="#FCFCFD"/>
</svg>
